<?xml version="1.0" encoding="UTF-8" standalone="no"?><svg xmlns="http://www.w3.org/2000/svg" xmlns:xlink="http://www.w3.org/1999/xlink" contentScriptType="application/ecmascript" contentStyleType="text/css" height="527px" preserveAspectRatio="none" style="width:643px;height:527px;" version="1.1" viewBox="0 0 643 527" width="643px" zoomAndPan="magnify"><defs><filter height="300%" id="f16fl007i09qw1" width="300%" x="-1" y="-1"><feGaussianBlur result="blurOut" stdDeviation="2.0"/><feColorMatrix in="blurOut" result="blurOut2" type="matrix" values="0 0 0 0 0 0 0 0 0 0 0 0 0 0 0 0 0 0 .4 0"/><feOffset dx="4.0" dy="4.0" in="blurOut2" result="blurOut3"/><feBlend in="SourceGraphic" in2="blurOut3" mode="normal"/></filter></defs><g><!--MD5=[e5cb729776681896271596c23c31c76c]
cluster dataAndStatusGroup--><!--MD5=[bdc91f44d8a548d9453ba42f660a453e]
class cData--><rect codeLine="6" fill="#F8F8F8" filter="url(#f16fl007i09qw1)" height="61.8359" id="cData" style="stroke:#383838;stroke-width:1.5;" width="91" x="58" y="62.5"/><ellipse cx="85.15" cy="78.5" fill="#C2C2C2" rx="11" ry="11" style="stroke:#383838;stroke-width:1.0;"/><path d="M87.9156,74.375 Q88.0719,74.1563 88.2594,74.0469 Q88.4469,73.9375 88.6656,73.9375 Q89.0406,73.9375 89.275,74.2031 Q89.5094,74.4531 89.5094,75.0625 L89.5094,76.5156 Q89.5094,77.125 89.275,77.3906 Q89.0406,77.6563 88.6656,77.6563 Q88.3219,77.6563 88.1188,77.4531 Q87.9156,77.2656 87.8063,76.75 Q87.7594,76.3906 87.5719,76.2031 Q87.2438,75.8281 86.6344,75.6094 Q86.025,75.3906 85.4,75.3906 Q84.6344,75.3906 83.9938,75.7188 Q83.3688,76.0469 82.8688,76.7969 Q82.3844,77.5469 82.3844,78.5781 L82.3844,79.6719 Q82.3844,80.9063 83.275,81.7344 Q84.1656,82.5469 85.7594,82.5469 Q86.6969,82.5469 87.3531,82.2969 Q87.7438,82.1406 88.1656,81.7031 Q88.4313,81.4375 88.5719,81.3594 Q88.7281,81.2813 88.9313,81.2813 Q89.2594,81.2813 89.5094,81.5469 Q89.775,81.7969 89.775,82.1406 Q89.775,82.4844 89.4313,82.8906 Q88.9313,83.4688 88.1344,83.7969 Q87.0563,84.25 85.7594,84.25 Q84.2438,84.25 83.0406,83.625 Q82.0563,83.125 81.3688,82.0625 Q80.6813,80.9844 80.6813,79.7031 L80.6813,78.5469 Q80.6813,77.2188 81.2906,76.0781 Q81.9156,74.9219 83.0094,74.3125 Q84.1031,73.6875 85.3375,73.6875 Q86.0719,73.6875 86.7125,73.8594 Q87.3688,74.0156 87.9156,74.375 Z " fill="#000000"/><text fill="#000000" font-family="sans-serif" font-size="12" lengthAdjust="spacing" textLength="32" x="101.85" y="83.4102">cData</text><line style="stroke:#383838;stroke-width:1.5;" x1="59" x2="148" y1="94.5" y2="94.5"/><text fill="#000000" font-family="sans-serif" font-size="11" lengthAdjust="spacing" textLength="79" x="64" y="109.9189">+m_vGuestBook</text><line style="stroke:#383838;stroke-width:1.5;" x1="59" x2="148" y1="116.3359" y2="116.3359"/><!--MD5=[38142ea0adbd22f53902db13ecef33d5]
class cStatus--><rect codeLine="10" fill="#F8F8F8" filter="url(#f16fl007i09qw1)" height="131.0156" id="cStatus" style="stroke:#383838;stroke-width:1.5;" width="145" x="7" y="258"/><ellipse cx="54.75" cy="274" fill="#C2C2C2" rx="11" ry="11" style="stroke:#383838;stroke-width:1.0;"/><path d="M57.5156,269.875 Q57.6719,269.6563 57.8594,269.5469 Q58.0469,269.4375 58.2656,269.4375 Q58.6406,269.4375 58.875,269.7031 Q59.1094,269.9531 59.1094,270.5625 L59.1094,272.0156 Q59.1094,272.625 58.875,272.8906 Q58.6406,273.1563 58.2656,273.1563 Q57.9219,273.1563 57.7188,272.9531 Q57.5156,272.7656 57.4063,272.25 Q57.3594,271.8906 57.1719,271.7031 Q56.8438,271.3281 56.2344,271.1094 Q55.625,270.8906 55,270.8906 Q54.2344,270.8906 53.5938,271.2188 Q52.9688,271.5469 52.4688,272.2969 Q51.9844,273.0469 51.9844,274.0781 L51.9844,275.1719 Q51.9844,276.4063 52.875,277.2344 Q53.7656,278.0469 55.3594,278.0469 Q56.2969,278.0469 56.9531,277.7969 Q57.3438,277.6406 57.7656,277.2031 Q58.0313,276.9375 58.1719,276.8594 Q58.3281,276.7813 58.5313,276.7813 Q58.8594,276.7813 59.1094,277.0469 Q59.375,277.2969 59.375,277.6406 Q59.375,277.9844 59.0313,278.3906 Q58.5313,278.9688 57.7344,279.2969 Q56.6563,279.75 55.3594,279.75 Q53.8438,279.75 52.6406,279.125 Q51.6563,278.625 50.9688,277.5625 Q50.2813,276.4844 50.2813,275.2031 L50.2813,274.0469 Q50.2813,272.7188 50.8906,271.5781 Q51.5156,270.4219 52.6094,269.8125 Q53.7031,269.1875 54.9375,269.1875 Q55.6719,269.1875 56.3125,269.3594 Q56.9688,269.5156 57.5156,269.875 Z " fill="#000000"/><text fill="#000000" font-family="sans-serif" font-size="12" lengthAdjust="spacing" textLength="41" x="75.25" y="278.9102">cStatus</text><line style="stroke:#383838;stroke-width:1.5;" x1="8" x2="151" y1="290" y2="290"/><text fill="#000000" font-family="sans-serif" font-size="11" lengthAdjust="spacing" textLength="133" x="13" y="305.4189">-m_bExecutionStatus = true</text><text fill="#000000" font-family="sans-serif" font-size="11" lengthAdjust="spacing" textLength="98" x="13" y="319.2549">-m_spExecMessage</text><line style="stroke:#383838;stroke-width:1.5;" x1="8" x2="151" y1="325.6719" y2="325.6719"/><text fill="#000000" font-family="sans-serif" font-size="11" lengthAdjust="spacing" textLength="61" x="13" y="341.0908">+SetStatus()</text><text fill="#000000" font-family="sans-serif" font-size="11" lengthAdjust="spacing" textLength="105" x="13" y="354.9268">+SetStatusMessage()</text><text fill="#000000" font-family="sans-serif" font-size="11" lengthAdjust="spacing" textLength="62" x="13" y="368.7627">+GetStatus()</text><text fill="#000000" font-family="sans-serif" font-size="11" lengthAdjust="spacing" textLength="106" x="13" y="382.5986">+GetStatusMessage()</text><!--MD5=[d0d147047804031be9a4a81a0e8407d1]
class cTaskQueue--><rect codeLine="19" fill="#F8F8F8" filter="url(#f16fl007i09qw1)" height="172.5234" id="cTaskQueue" style="stroke:#383838;stroke-width:1.5;" width="102" x="184.5" y="7"/><ellipse cx="199.5" cy="23" fill="#C2C2C2" rx="11" ry="11" style="stroke:#383838;stroke-width:1.0;"/><path d="M202.2656,18.875 Q202.4219,18.6563 202.6094,18.5469 Q202.7969,18.4375 203.0156,18.4375 Q203.3906,18.4375 203.625,18.7031 Q203.8594,18.9531 203.8594,19.5625 L203.8594,21.0156 Q203.8594,21.625 203.625,21.8906 Q203.3906,22.1563 203.0156,22.1563 Q202.6719,22.1563 202.4688,21.9531 Q202.2656,21.7656 202.1563,21.25 Q202.1094,20.8906 201.9219,20.7031 Q201.5938,20.3281 200.9844,20.1094 Q200.375,19.8906 199.75,19.8906 Q198.9844,19.8906 198.3438,20.2188 Q197.7188,20.5469 197.2188,21.2969 Q196.7344,22.0469 196.7344,23.0781 L196.7344,24.1719 Q196.7344,25.4063 197.625,26.2344 Q198.5156,27.0469 200.1094,27.0469 Q201.0469,27.0469 201.7031,26.7969 Q202.0938,26.6406 202.5156,26.2031 Q202.7813,25.9375 202.9219,25.8594 Q203.0781,25.7813 203.2813,25.7813 Q203.6094,25.7813 203.8594,26.0469 Q204.125,26.2969 204.125,26.6406 Q204.125,26.9844 203.7813,27.3906 Q203.2813,27.9688 202.4844,28.2969 Q201.4063,28.75 200.1094,28.75 Q198.5938,28.75 197.3906,28.125 Q196.4063,27.625 195.7188,26.5625 Q195.0313,25.4844 195.0313,24.2031 L195.0313,23.0469 Q195.0313,21.7188 195.6406,20.5781 Q196.2656,19.4219 197.3594,18.8125 Q198.4531,18.1875 199.6875,18.1875 Q200.4219,18.1875 201.0625,18.3594 Q201.7188,18.5156 202.2656,18.875 Z " fill="#000000"/><text fill="#000000" font-family="sans-serif" font-size="12" lengthAdjust="spacing" textLength="70" x="213.5" y="27.9102">cTaskQueue</text><line style="stroke:#383838;stroke-width:1.5;" x1="185.5" x2="285.5" y1="39" y2="39"/><text fill="#000000" font-family="sans-serif" font-size="11" lengthAdjust="spacing" textLength="73" x="190.5" y="54.4189">-m_TaskQueue</text><text fill="#000000" font-family="sans-serif" font-size="11" lengthAdjust="spacing" textLength="52" x="190.5" y="68.2549">-m_spData</text><text fill="#000000" font-family="sans-serif" font-size="11" lengthAdjust="spacing" textLength="61" x="190.5" y="82.0908">-m_spStatus</text><text fill="#000000" font-family="sans-serif" font-size="11" lengthAdjust="spacing" textLength="59" x="190.5" y="95.9268">-m_spTask1</text><text fill="#000000" font-family="sans-serif" font-size="11" lengthAdjust="spacing" textLength="59" x="190.5" y="109.7627">-m_spTask2</text><text fill="#000000" font-family="sans-serif" font-size="11" lengthAdjust="spacing" textLength="59" x="190.5" y="123.5986">-m_spTask3</text><text fill="#000000" font-family="sans-serif" font-size="11" lengthAdjust="spacing" textLength="59" x="190.5" y="137.4346">-m_spTask4</text><line style="stroke:#383838;stroke-width:1.5;" x1="185.5" x2="285.5" y1="143.8516" y2="143.8516"/><text fill="#000000" font-family="sans-serif" font-size="11" lengthAdjust="spacing" textLength="57" x="190.5" y="159.2705">+AddTask()</text><text fill="#000000" font-family="sans-serif" font-size="11" lengthAdjust="spacing" textLength="47" x="190.5" y="173.1064">+RunTQ()</text><!--MD5=[c83419180c48d1a7814052b156ab2fd8]
class cTask--><rect codeLine="31" fill="#F8F8F8" filter="url(#f16fl007i09qw1)" height="117.1797" id="cTask" style="stroke:#383838;stroke-width:1.5;" width="106" x="344.5" y="265"/><ellipse cx="377.95" cy="281" fill="#C2C2C2" rx="11" ry="11" style="stroke:#383838;stroke-width:1.0;"/><path d="M380.7156,276.875 Q380.8719,276.6563 381.0594,276.5469 Q381.2469,276.4375 381.4656,276.4375 Q381.8406,276.4375 382.075,276.7031 Q382.3094,276.9531 382.3094,277.5625 L382.3094,279.0156 Q382.3094,279.625 382.075,279.8906 Q381.8406,280.1563 381.4656,280.1563 Q381.1219,280.1563 380.9188,279.9531 Q380.7156,279.7656 380.6063,279.25 Q380.5594,278.8906 380.3719,278.7031 Q380.0438,278.3281 379.4344,278.1094 Q378.825,277.8906 378.2,277.8906 Q377.4344,277.8906 376.7938,278.2188 Q376.1688,278.5469 375.6688,279.2969 Q375.1844,280.0469 375.1844,281.0781 L375.1844,282.1719 Q375.1844,283.4063 376.075,284.2344 Q376.9656,285.0469 378.5594,285.0469 Q379.4969,285.0469 380.1531,284.7969 Q380.5438,284.6406 380.9656,284.2031 Q381.2313,283.9375 381.3719,283.8594 Q381.5281,283.7813 381.7313,283.7813 Q382.0594,283.7813 382.3094,284.0469 Q382.575,284.2969 382.575,284.6406 Q382.575,284.9844 382.2313,285.3906 Q381.7313,285.9688 380.9344,286.2969 Q379.8563,286.75 378.5594,286.75 Q377.0438,286.75 375.8406,286.125 Q374.8563,285.625 374.1688,284.5625 Q373.4813,283.4844 373.4813,282.2031 L373.4813,281.0469 Q373.4813,279.7188 374.0906,278.5781 Q374.7156,277.4219 375.8094,276.8125 Q376.9031,276.1875 378.1375,276.1875 Q378.8719,276.1875 379.5125,276.3594 Q380.1688,276.5156 380.7156,276.875 Z " fill="#000000"/><text fill="#000000" font-family="sans-serif" font-size="12" lengthAdjust="spacing" textLength="33" x="396.05" y="285.9102">cTask</text><line style="stroke:#383838;stroke-width:1.5;" x1="345.5" x2="449.5" y1="297" y2="297"/><text fill="#000000" font-family="sans-serif" font-size="11" lengthAdjust="spacing" textLength="54" x="350.5" y="312.4189">#m_spData</text><text fill="#000000" font-family="sans-serif" font-size="11" lengthAdjust="spacing" textLength="63" x="350.5" y="326.2549">#m_spStatus</text><line style="stroke:#383838;stroke-width:1.5;" x1="345.5" x2="449.5" y1="332.6719" y2="332.6719"/><text fill="#000000" font-family="sans-serif" font-size="11" font-style="italic" lengthAdjust="spacing" textLength="79" x="350.5" y="348.0908">+ExecuteTask()</text><text fill="#000000" font-family="sans-serif" font-size="11" lengthAdjust="spacing" textLength="85" x="350.5" y="361.9268">+SetDataPointer()</text><text fill="#000000" font-family="sans-serif" font-size="11" lengthAdjust="spacing" textLength="94" x="350.5" y="375.7627">+SetStatusPointer()</text><!--MD5=[208aa20b13c5c64ec1b73a37ea506358]
class cTask1--><rect codeLine="38" fill="#F8F8F8" filter="url(#f16fl007i09qw1)" height="61.8359" id="cTask1" style="stroke:#383838;stroke-width:1.5;" width="88" x="295.5" y="452"/><ellipse cx="317.7" cy="468" fill="#C2C2C2" rx="11" ry="11" style="stroke:#383838;stroke-width:1.0;"/><path d="M320.4656,463.875 Q320.6219,463.6563 320.8094,463.5469 Q320.9969,463.4375 321.2156,463.4375 Q321.5906,463.4375 321.825,463.7031 Q322.0594,463.9531 322.0594,464.5625 L322.0594,466.0156 Q322.0594,466.625 321.825,466.8906 Q321.5906,467.1563 321.2156,467.1563 Q320.8719,467.1563 320.6688,466.9531 Q320.4656,466.7656 320.3563,466.25 Q320.3094,465.8906 320.1219,465.7031 Q319.7938,465.3281 319.1844,465.1094 Q318.575,464.8906 317.95,464.8906 Q317.1844,464.8906 316.5438,465.2188 Q315.9188,465.5469 315.4188,466.2969 Q314.9344,467.0469 314.9344,468.0781 L314.9344,469.1719 Q314.9344,470.4063 315.825,471.2344 Q316.7156,472.0469 318.3094,472.0469 Q319.2469,472.0469 319.9031,471.7969 Q320.2938,471.6406 320.7156,471.2031 Q320.9813,470.9375 321.1219,470.8594 Q321.2781,470.7813 321.4813,470.7813 Q321.8094,470.7813 322.0594,471.0469 Q322.325,471.2969 322.325,471.6406 Q322.325,471.9844 321.9813,472.3906 Q321.4813,472.9688 320.6844,473.2969 Q319.6063,473.75 318.3094,473.75 Q316.7938,473.75 315.5906,473.125 Q314.6063,472.625 313.9188,471.5625 Q313.2313,470.4844 313.2313,469.2031 L313.2313,468.0469 Q313.2313,466.7188 313.8406,465.5781 Q314.4656,464.4219 315.5594,463.8125 Q316.6531,463.1875 317.8875,463.1875 Q318.6219,463.1875 319.2625,463.3594 Q319.9188,463.5156 320.4656,463.875 Z " fill="#000000"/><text fill="#000000" font-family="sans-serif" font-size="12" lengthAdjust="spacing" textLength="40" x="333.3" y="472.9102">cTask1</text><line style="stroke:#383838;stroke-width:1.5;" x1="296.5" x2="382.5" y1="484" y2="484"/><line style="stroke:#383838;stroke-width:1.5;" x1="296.5" x2="382.5" y1="492" y2="492"/><text fill="#000000" font-family="sans-serif" font-size="11" lengthAdjust="spacing" textLength="76" x="301.5" y="507.4189">+ExecuteTask()</text><!--MD5=[4ad4755595394c113b011f057e44e2da]
class cTask2--><rect codeLine="41" fill="#F8F8F8" filter="url(#f16fl007i09qw1)" height="61.8359" id="cTask2" style="stroke:#383838;stroke-width:1.5;" width="88" x="172.5" y="452"/><ellipse cx="194.7" cy="468" fill="#C2C2C2" rx="11" ry="11" style="stroke:#383838;stroke-width:1.0;"/><path d="M197.4656,463.875 Q197.6219,463.6563 197.8094,463.5469 Q197.9969,463.4375 198.2156,463.4375 Q198.5906,463.4375 198.825,463.7031 Q199.0594,463.9531 199.0594,464.5625 L199.0594,466.0156 Q199.0594,466.625 198.825,466.8906 Q198.5906,467.1563 198.2156,467.1563 Q197.8719,467.1563 197.6688,466.9531 Q197.4656,466.7656 197.3563,466.25 Q197.3094,465.8906 197.1219,465.7031 Q196.7938,465.3281 196.1844,465.1094 Q195.575,464.8906 194.95,464.8906 Q194.1844,464.8906 193.5438,465.2188 Q192.9188,465.5469 192.4188,466.2969 Q191.9344,467.0469 191.9344,468.0781 L191.9344,469.1719 Q191.9344,470.4063 192.825,471.2344 Q193.7156,472.0469 195.3094,472.0469 Q196.2469,472.0469 196.9031,471.7969 Q197.2938,471.6406 197.7156,471.2031 Q197.9813,470.9375 198.1219,470.8594 Q198.2781,470.7813 198.4813,470.7813 Q198.8094,470.7813 199.0594,471.0469 Q199.325,471.2969 199.325,471.6406 Q199.325,471.9844 198.9813,472.3906 Q198.4813,472.9688 197.6844,473.2969 Q196.6063,473.75 195.3094,473.75 Q193.7938,473.75 192.5906,473.125 Q191.6063,472.625 190.9188,471.5625 Q190.2313,470.4844 190.2313,469.2031 L190.2313,468.0469 Q190.2313,466.7188 190.8406,465.5781 Q191.4656,464.4219 192.5594,463.8125 Q193.6531,463.1875 194.8875,463.1875 Q195.6219,463.1875 196.2625,463.3594 Q196.9188,463.5156 197.4656,463.875 Z " fill="#000000"/><text fill="#000000" font-family="sans-serif" font-size="12" lengthAdjust="spacing" textLength="40" x="210.3" y="472.9102">cTask2</text><line style="stroke:#383838;stroke-width:1.5;" x1="173.5" x2="259.5" y1="484" y2="484"/><line style="stroke:#383838;stroke-width:1.5;" x1="173.5" x2="259.5" y1="492" y2="492"/><text fill="#000000" font-family="sans-serif" font-size="11" lengthAdjust="spacing" textLength="76" x="178.5" y="507.4189">+ExecuteTask()</text><!--MD5=[c3a87aabd00e1f8542ab76383b777c10]
class cTask3--><rect codeLine="44" fill="#F8F8F8" filter="url(#f16fl007i09qw1)" height="61.8359" id="cTask3" style="stroke:#383838;stroke-width:1.5;" width="88" x="541.5" y="452"/><ellipse cx="563.7" cy="468" fill="#C2C2C2" rx="11" ry="11" style="stroke:#383838;stroke-width:1.0;"/><path d="M566.4656,463.875 Q566.6219,463.6563 566.8094,463.5469 Q566.9969,463.4375 567.2156,463.4375 Q567.5906,463.4375 567.825,463.7031 Q568.0594,463.9531 568.0594,464.5625 L568.0594,466.0156 Q568.0594,466.625 567.825,466.8906 Q567.5906,467.1563 567.2156,467.1563 Q566.8719,467.1563 566.6688,466.9531 Q566.4656,466.7656 566.3563,466.25 Q566.3094,465.8906 566.1219,465.7031 Q565.7938,465.3281 565.1844,465.1094 Q564.575,464.8906 563.95,464.8906 Q563.1844,464.8906 562.5438,465.2188 Q561.9188,465.5469 561.4188,466.2969 Q560.9344,467.0469 560.9344,468.0781 L560.9344,469.1719 Q560.9344,470.4063 561.825,471.2344 Q562.7156,472.0469 564.3094,472.0469 Q565.2469,472.0469 565.9031,471.7969 Q566.2938,471.6406 566.7156,471.2031 Q566.9813,470.9375 567.1219,470.8594 Q567.2781,470.7813 567.4813,470.7813 Q567.8094,470.7813 568.0594,471.0469 Q568.325,471.2969 568.325,471.6406 Q568.325,471.9844 567.9813,472.3906 Q567.4813,472.9688 566.6844,473.2969 Q565.6063,473.75 564.3094,473.75 Q562.7938,473.75 561.5906,473.125 Q560.6063,472.625 559.9188,471.5625 Q559.2313,470.4844 559.2313,469.2031 L559.2313,468.0469 Q559.2313,466.7188 559.8406,465.5781 Q560.4656,464.4219 561.5594,463.8125 Q562.6531,463.1875 563.8875,463.1875 Q564.6219,463.1875 565.2625,463.3594 Q565.9188,463.5156 566.4656,463.875 Z " fill="#000000"/><text fill="#000000" font-family="sans-serif" font-size="12" lengthAdjust="spacing" textLength="40" x="579.3" y="472.9102">cTask3</text><line style="stroke:#383838;stroke-width:1.5;" x1="542.5" x2="628.5" y1="484" y2="484"/><line style="stroke:#383838;stroke-width:1.5;" x1="542.5" x2="628.5" y1="492" y2="492"/><text fill="#000000" font-family="sans-serif" font-size="11" lengthAdjust="spacing" textLength="76" x="547.5" y="507.4189">+ExecuteTask()</text><!--MD5=[e14e7e8a33afdf5cdad6d07efea6426f]
class cTask4--><rect codeLine="47" fill="#F8F8F8" filter="url(#f16fl007i09qw1)" height="61.8359" id="cTask4" style="stroke:#383838;stroke-width:1.5;" width="88" x="418.5" y="452"/><ellipse cx="440.7" cy="468" fill="#C2C2C2" rx="11" ry="11" style="stroke:#383838;stroke-width:1.0;"/><path d="M443.4656,463.875 Q443.6219,463.6563 443.8094,463.5469 Q443.9969,463.4375 444.2156,463.4375 Q444.5906,463.4375 444.825,463.7031 Q445.0594,463.9531 445.0594,464.5625 L445.0594,466.0156 Q445.0594,466.625 444.825,466.8906 Q444.5906,467.1563 444.2156,467.1563 Q443.8719,467.1563 443.6688,466.9531 Q443.4656,466.7656 443.3563,466.25 Q443.3094,465.8906 443.1219,465.7031 Q442.7938,465.3281 442.1844,465.1094 Q441.575,464.8906 440.95,464.8906 Q440.1844,464.8906 439.5438,465.2188 Q438.9188,465.5469 438.4188,466.2969 Q437.9344,467.0469 437.9344,468.0781 L437.9344,469.1719 Q437.9344,470.4063 438.825,471.2344 Q439.7156,472.0469 441.3094,472.0469 Q442.2469,472.0469 442.9031,471.7969 Q443.2938,471.6406 443.7156,471.2031 Q443.9813,470.9375 444.1219,470.8594 Q444.2781,470.7813 444.4813,470.7813 Q444.8094,470.7813 445.0594,471.0469 Q445.325,471.2969 445.325,471.6406 Q445.325,471.9844 444.9813,472.3906 Q444.4813,472.9688 443.6844,473.2969 Q442.6063,473.75 441.3094,473.75 Q439.7938,473.75 438.5906,473.125 Q437.6063,472.625 436.9188,471.5625 Q436.2313,470.4844 436.2313,469.2031 L436.2313,468.0469 Q436.2313,466.7188 436.8406,465.5781 Q437.4656,464.4219 438.5594,463.8125 Q439.6531,463.1875 440.8875,463.1875 Q441.6219,463.1875 442.2625,463.3594 Q442.9188,463.5156 443.4656,463.875 Z " fill="#000000"/><text fill="#000000" font-family="sans-serif" font-size="12" lengthAdjust="spacing" textLength="40" x="456.3" y="472.9102">cTask4</text><line style="stroke:#383838;stroke-width:1.5;" x1="419.5" x2="505.5" y1="484" y2="484"/><line style="stroke:#383838;stroke-width:1.5;" x1="419.5" x2="505.5" y1="492" y2="492"/><text fill="#000000" font-family="sans-serif" font-size="11" lengthAdjust="spacing" textLength="76" x="424.5" y="507.4189">+ExecuteTask()</text><!--MD5=[a152600856fd851fb527eb98c90a7355]
reverse link cTask to cTask1--><path codeLine="51" d="M369.29,401.11 C362.68,419.06 356.02,437.15 350.67,451.66 " fill="none" id="cTask-backto-cTask1" style="stroke:#383838;stroke-width:1.0;"/><polygon fill="none" points="362.75,398.6,376.23,382.25,375.89,403.44,362.75,398.6" style="stroke:#383838;stroke-width:1.0;"/><!--MD5=[aaa5efb236b9ae8a0d84b4356597c97a]
reverse link cTask to cTask2--><path codeLine="52" d="M328.93,384.17 C302.4,407.26 273.18,432.68 251.18,451.82 " fill="none" id="cTask-backto-cTask2" style="stroke:#383838;stroke-width:1.0;"/><polygon fill="none" points="324.49,378.75,344.17,370.9,333.68,389.31,324.49,378.75" style="stroke:#383838;stroke-width:1.0;"/><!--MD5=[a85fd8f02cb47f6167808c6e02dda5a6]
reverse link cTask to cTask3--><path codeLine="53" d="M466.31,382.15 C494.5,405.76 525.95,432.11 549.47,451.81 " fill="none" id="cTask-backto-cTask3" style="stroke:#383838;stroke-width:1.0;"/><polygon fill="none" points="461.46,387.21,450.62,369,470.45,376.48,461.46,387.21" style="stroke:#383838;stroke-width:1.0;"/><!--MD5=[cb2f81e9240772724cb2b469b7a2c26b]
reverse link cTask to cTask4--><path codeLine="54" d="M429,400.83 C436.45,418.87 443.96,437.07 449.98,451.66 " fill="none" id="cTask-backto-cTask4" style="stroke:#383838;stroke-width:1.0;"/><polygon fill="none" points="422.49,403.41,421.33,382.25,435.43,398.07,422.49,403.41" style="stroke:#383838;stroke-width:1.0;"/><!--MD5=[8538d17742a8589a16f67fb067384001]
link cTaskQueue to cData--><path codeLine="56" d="M172.2653,116.6313 C172.2653,116.6313 165.02,116.69 162.02,116.45 " fill="none" id="cTaskQueue-cData" style="stroke:#383838;stroke-width:1.0;"/><polygon fill="#383838" points="149.13,114.54,157.4428,119.8218,154.0755,115.2763,158.6209,111.909,149.13,114.54" style="stroke:#383838;stroke-width:1.0;"/><line style="stroke:#383838;stroke-width:1.0;" x1="154.0755" x2="161.99" y1="115.2763" y2="116.45"/><polygon fill="#FFFFFF" points="184.22,115.59,177.8955,112.1257,172.2653,116.6313,178.5897,120.0955,184.22,115.59" style="stroke:#383838;stroke-width:1.0;"/><!--MD5=[8538d17742a8589a16f67fb067384001]
link cTaskQueue to cData--><!--MD5=[941deb1fd6c7aa6fdb434ec37337e275]
link cTaskQueue to cStatus--><path codeLine="57" d="M177.3474,162.2922 C177.3474,162.2922 136.88,219.56 119.49,246.37 " fill="none" id="cTaskQueue-cStatus" style="stroke:#383838;stroke-width:1.0;"/><polygon fill="#383838" points="112.24,257.65,120.4694,252.2392,114.9421,253.443,113.7382,247.9158,112.24,257.65" style="stroke:#383838;stroke-width:1.0;"/><line style="stroke:#383838;stroke-width:1.0;" x1="114.9421" x2="119.27" y1="253.443" y2="246.71"/><polygon fill="#FFFFFF" points="184.45,152.62,177.6746,155.0886,177.3474,162.2922,184.1228,159.8237,184.45,152.62" style="stroke:#383838;stroke-width:1.0;"/><!--MD5=[941deb1fd6c7aa6fdb434ec37337e275]
link cTaskQueue to cStatus--><!--MD5=[ed8841ae5d141358ed505c67205be5d7]
link cTaskQueue to cTask1--><path codeLine="58" d="M261.5616,191.6096 C261.5616,191.6096 312.07,379.79 327.93,438.88 " fill="none" id="cTaskQueue-cTask1" style="stroke:#383838;stroke-width:1.0;"/><polygon fill="#383838" points="331.39,451.77,332.9195,442.0406,330.0935,446.941,325.1931,444.1151,331.39,451.77" style="stroke:#383838;stroke-width:1.0;"/><line style="stroke:#383838;stroke-width:1.0;" x1="330.0935" x2="328.015" y1="446.941" y2="439.21"/><polygon fill="#383838" points="258.45,180.02,256.1426,186.852,261.5616,191.6096,263.869,184.7776,258.45,180.02" style="stroke:#383838;stroke-width:1.0;"/><!--MD5=[2303eab004b3366fb20ca10b32b9c0c4]
link cTaskQueue to cTask2--><path codeLine="59" d="M230.716,192.0053 C230.716,192.0053 221.53,379.5 218.63,438.54 " fill="none" id="cTaskQueue-cTask2" style="stroke:#383838;stroke-width:1.0;"/><polygon fill="#383838" points="217.98,451.77,222.4105,442.9739,218.2217,446.7758,214.4198,442.5871,217.98,451.77" style="stroke:#383838;stroke-width:1.0;"/><line style="stroke:#383838;stroke-width:1.0;" x1="218.2217" x2="218.615" y1="446.7758" y2="438.78"/><polygon fill="#383838" points="231.31,180.02,227.0179,185.8147,230.716,192.0053,235.0081,186.2106,231.31,180.02" style="stroke:#383838;stroke-width:1.0;"/><!--MD5=[83a06020508e8665b4f07ff18393f27d]
link cTaskQueue to cTask3--><path codeLine="60" d="M297.7081,116.2731 C297.7081,116.2731 416.83,167.79 467.5,210 C538.28,268.97 567.76,378.42 579.1,438.95 " fill="none" id="cTaskQueue-cTask3" style="stroke:#383838;stroke-width:1.0;"/><polygon fill="#383838" points="581.37,451.8,583.7463,442.2421,580.5017,446.876,575.8678,443.6314,581.37,451.8" style="stroke:#383838;stroke-width:1.0;"/><line style="stroke:#383838;stroke-width:1.0;" x1="580.5017" x2="579.11" y1="446.876" y2="439"/><polygon fill="#383838" points="286.51,111.96,290.6714,117.8492,297.7081,116.2731,293.5467,110.3838,286.51,111.96" style="stroke:#383838;stroke-width:1.0;"/><!--MD5=[226a5fc75395bcfa39e239fb6a6d4d33]
link cTaskQueue to cTask4--><path codeLine="61" d="M297.5863,118.3171 C297.5863,118.3171 433.03,189.78 468.5,258 C498.13,314.98 487.05,391.63 475.44,438.88 " fill="none" id="cTaskQueue-cTask4" style="stroke:#383838;stroke-width:1.0;"/><polygon fill="#383838" points="472.11,451.67,478.2455,443.9657,473.3679,446.8308,470.5028,441.9532,472.11,451.67" style="stroke:#383838;stroke-width:1.0;"/><line style="stroke:#383838;stroke-width:1.0;" x1="473.3679" x2="475.385" y1="446.8308" y2="439.095"/><polygon fill="#383838" points="286.6,113.49,290.4841,119.5657,297.5863,118.3171,293.7022,112.2415,286.6,113.49" style="stroke:#383838;stroke-width:1.0;"/><!--MD5=[0310c84dec22da4f6e90d8b0fb338524]
link cTaskQueue to cTask--><path codeLine="63" d="M286.54,166.33 C308.02,196.56 332.77,231.4 353.44,260.49 " fill="none" id="cTaskQueue-to-cTask" style="stroke:#383838;stroke-width:1.0;stroke-dasharray:7.0,7.0;"/><polygon fill="#383838" points="356.46,264.74,354.4966,255.0888,353.5592,260.6675,347.9806,259.7301,356.46,264.74" style="stroke:#383838;stroke-width:1.0;"/><text fill="#000000" font-family="sans-serif" font-size="13" lengthAdjust="spacing" textLength="42" x="327.5" y="224.4951">«uses»</text><!--MD5=[5605ccc92c368e89274666321c7084dc]
link cData to cStatus--><!--MD5=[91ecb7705807ab9a19e978f5d4359405]
@startuml

skinparam monochrome true
skinparam classAttributeIconSize 0

together dataAndStatusGroup{
    class cData{
        +m_vGuestBook
    }

    class cStatus{
        +SetStatus()
        +SetStatusMessage()
        +GetStatus()
        +GetStatusMessage()
        -m_bExecutionStatus = true
        -m_spExecMessage
    }
}
class cTaskQueue{
    -m_TaskQueue
    -m_spData
    -m_spStatus
    -m_spTask1
    -m_spTask2
    -m_spTask3
    -m_spTask4
    +AddTask()
    +RunTQ()
}

class cTask{
    #m_spData
    #m_spStatus
    {abstract}+ExecuteTask()
    +SetDataPointer()
    +SetStatusPointer()
}
class cTask1{
    +ExecuteTask()
}
class cTask2{
    +ExecuteTask()
}
class cTask3{
    +ExecuteTask()
}
class cTask4{
    +ExecuteTask()
}

cTask <|- - cTask1
cTask <|- - cTask2
cTask <|- - cTask3
cTask <|- - cTask4

cTaskQueue o- -> cData
cTaskQueue o- -> cStatus
cTaskQueue *- -> cTask1
cTaskQueue *- -> cTask2
cTaskQueue *- -> cTask3
cTaskQueue *- -> cTask4

cTaskQueue ..> cTask:<<uses>>

cData -[hidden]down- cStatus
cTaskQueue -[hidden]right- - cData
cTaskQueue -[hidden]right- - cStatus
@enduml

PlantUML version 1.2021.00(Sun Jan 10 11:25:05 CET 2021)
(GPL source distribution)
Java Runtime: Java(TM) SE Runtime Environment
JVM: Java HotSpot(TM) 64-Bit Server VM
Default Encoding: Cp1252
Language: de
Country: DE
--></g></svg>